PathFileType	4	(X/Y/Z)	C:/Users/beibeiliu/ov580/test_trc/User3\sequence.29_training_dense_left.trc
DataRate	CameraRate	NumFrames	NumMarkers	Units	OrigDataRate	OrigDataStartFrame	OrigNumFrames
120	120	11	19	mm	120	77	128
Frame#	Time	ThumbCMC			ThumbMCP			ThumbIP			ThumbTip			IndexMCP			IndexPIP			IndexTip			MiddleMCP			MiddlePIP			MiddleTip			RingMCP			RingPIP			RingTip			PinkyMCP			PinkyPIP			PinkyTip			BackHand1			BackHand2			BackHand3	
		X0	Y0	Z0	X1	Y1	Z1	X2	Y2	Z2	X3	Y3	Z3	X4	Y4	Z4	X5	Y5	Z5	X6	Y6	Z6	X7	Y7	Z7	X8	Y8	Z8	X9	Y9	Z9	X10	Y10	Z10	X11	Y11	Z11	X12	Y12	Z12	X13	Y13	Z13	X14	Y14	Z14	X15	Y15	Z15	X16	Y16	Z16	X17	Y17	Z17	X18	Y18	Z18	
76	0.633333	-16.1652	-14.2002	36.8346	-2.95246	-32.7189	21.0145	9.68019	-45.1619	-2.84511	19.2878	-60.1546	-18.7472	15.572	2.97036	-28.6869	26.1109	-8.07842	-56.8901	22.3827	-21.1159	-80.3593	1.02356	18.4941	-48.6816	-0.153322	7.17599	-76.0699	-9.0276	-18.2265	-97.0978	-19.4006	29.6023	-45.8314	-22.2132	22.998	-76.7885	-30.6482	6.1312	-96.2007	-43.4574	40.9831	-41.1741	-43.0595	38.6605	-63.4209	-42.6103	25.378	-90.2003	-33.9072	41.4303	7.12834	-46.4702	47.3171	29.6726	-15.7672	24.6137	26.3055	
77	0.641667	-17.6718	-13.9664	24.7285	-7.32173	-33.7038	2.1438	1.57955	-51.3678	-21.0965	4.67974	-62.5174	-38.6486	6.38602	7.51144	-46.0635	13.8733	-3.13624	-75.0913	8.04358	-16.6738	-99.9943	-5.7381	23.7269	-57.7474	-5.70432	16.7282	-84.9921	-15.5664	0.967541	-114.21	-29.2754	34.3359	-56.0186	-32.2834	31.9868	-84.5433	-37.3626	22.1632	-110.173	-48.9549	42.177	-46.6741	-51.4999	42.3891	-69.1874	-52.5098	37.1532	-89.95	-34.0832	44.7924	-1.63506	-45.0702	44.3121	26.4199	-14.9922	24.2612	15.8651	
78	0.65	-18.4403	-22.7061	16.3218	-16.5001	-40.4625	-11.5541	-15.7842	-55.802	-34.6571	-17.3916	-65.7947	-54.7733	-3.04966	1.68288	-59.0757	-0.161086	-8.61143	-84.8392	-10.9107	-21.7601	-107.073	-17.0517	25.5969	-63.032	-14.5097	19.4933	-96.5546	-18.2201	8.96742	-124.22	-35.3656	34.1208	-57.4426	-38.3129	37.1381	-86.6855	-41.1145	33.2715	-110.186	-56.9308	40.2432	-45.2214	-58.9706	44.858	-71.5015	-60.4751	47.6293	-91.4798	-36.3839	37.1455	-4.43706	-42.7313	39.3506	20.8825	-15.3977	15.5064	9.39044	
79	0.658333	-26.9944	-28.8148	10.6602	-28.0249	-48.7535	-13.8852	-28.4873	-65.9749	-39.2138	-32.6288	-75.2895	-58.3795	-15.4157	-7.38352	-62.2278	-22.4454	-21.5951	-92.298	-34.9567	-36.9199	-106.565	-23.1908	18.1532	-67.8845	-20.8859	13.377	-94.3874	-26.3528	9.12996	-125.527	-37.6673	29.8432	-63.1664	-40.9003	34.3469	-86.1044	-40.4646	33.7238	-110.735	-59.9976	38.2132	-46.5785	-63.3184	45.2764	-65.4166	-63.129	50.6702	-86.7447	-40.8494	32.5974	-6.55464	-41.0021	34.3013	18.8124	-18.0263	9.76692	5.7282	
80	0.666667	-34.5847	-32.6741	11.3369	-35.1032	-55.0151	-9.84487	-36.7181	-67.0051	-38.0636	-41.8191	-78.2448	-55.8819	-28.2292	-18.3394	-66.2467	-42.8949	-34.2699	-88.4219	-61.6174	-53.6572	-95.973	-33.7158	9.91617	-68.8185	-35.3952	6.54581	-97.3199	-39.6349	-1.16322	-124.715	-46.4398	22.8506	-58.9815	-46.9049	26.7648	-82.1657	-47.7995	30.2061	-111.511	-67.8052	37.6867	-45.1891	-67.0769	40.0445	-62.3927	-68.0588	52.3839	-81.6258	-45.0462	30.182	-11.0137	-46.1295	26.7659	20.4832	-24.4392	3.26187	6.87811	
81	0.675	-36.044	-37.7329	13.95	-38.5768	-55.464	-11.5442	-38.2985	-69.4716	-37.265	-43.7981	-79.9313	-55.2582	-37.6307	-21.629	-61.7838	-53.1419	-36.281	-82.3952	-76.7014	-55.1482	-88.683	-43.6419	3.96802	-68.7189	-47.6864	-0.778049	-95.0417	-58.3115	-2.68687	-122.978	-59.8238	22.5926	-57.0838	-63.1272	28.2897	-79.4143	-64.2254	31.1577	-109.381	-73.6972	31.7015	-43.3141	-76.1315	40.0937	-60.4578	-81.8917	52.4468	-81.0068	-54.0826	27.0742	-6.24097	-56.4613	27.6518	21.5968	-31.6408	1.9025	6.80845	
82	0.683333	-39.1501	-33.5021	13.0101	-41.7347	-50.3937	-9.24476	-41.7058	-64.8428	-39.6589	-46.1715	-72.3895	-59.6402	-41.1914	-15.7456	-62.8973	-53.5269	-32.0496	-83.9786	-74.9476	-49.1435	-92.7239	-54.3948	8.92493	-64.3824	-61.0808	2.95947	-95.5202	-69.9243	-0.641274	-122.335	-71.6042	23.2914	-56.9761	-79.3849	27.1627	-78.9854	-82.3285	26.3152	-106.093	-88.2949	28.4378	-37.7679	-94.8074	36.1637	-60.4372	-104.393	37.0293	-81.9913	-60.7977	26.2733	-7.15383	-62.4337	26.4491	24.15	-38.635	7.22748	10.0064	
83	0.691667	-44.2437	-26.0245	13.5578	-41.1082	-46.4476	-14.0998	-44.0855	-56.1209	-41.9714	-49.6815	-65.7031	-64.336	-43.1442	0.0184722	-61.4725	-49.6621	-12.1443	-89.5742	-61.5747	-31.8074	-105.392	-63.8314	23.1591	-66.4521	-67.7438	20.9292	-93.1484	-72.5755	17.078	-121.194	-84.2452	24.4204	-55.862	-93.3457	24.1796	-80.2504	-103.476	18.1088	-107.196	-106.76	23.663	-41.5112	-117.652	19.5451	-62.3759	-123.839	5.32503	-84.0891	-78.1524	30.4358	-5.54599	-80.3638	28.2354	25.5666	-48.133	14.0071	8.35607	
84	0.7	-44.4478	-17.3679	8.5317	-41.6973	-37.9935	-18.3373	-41.5954	-51.5653	-45.6217	-53.8528	-58.6116	-65.3442	-48.0307	16.0687	-58.5973	-49.4741	7.8542	-92.0414	-50.3054	-8.1785	-110.693	-70.2146	31.6666	-63.6893	-74.6923	35.7375	-88.6606	-76.0466	32.8643	-121.999	-97.061	23.4061	-57.6644	-103.432	13.9842	-85.7052	-110.993	-4.98466	-106.032	-115.09	12.2135	-46.6216	-125.595	-4.68809	-62.045	-123.005	-28.4964	-72.2624	-92.0025	33.2912	-5.38846	-91.7147	26.1983	27.7719	-57.5877	21.1245	8.92281	
85	0.708333	-48.4437	-9.67433	10.3547	-46.034	-27.6696	-19.3253	-48.0914	-40.6323	-45.2028	-60.9959	-49.3014	-66.646	-58.8586	29.203	-57.6606	-54.6216	27.6301	-85.1248	-52.9274	10.5549	-110.166	-83.559	39.6417	-56.7971	-86.7878	44.6638	-89.7167	-90.2878	36.0648	-119.105	-108.229	21.6594	-57.5933	-108.135	6.7898	-84.6162	-110.706	-25.7209	-92.827	-124.404	0.350061	-48.2755	-121.109	-21.2319	-57.9155	-110.479	-50.5809	-51.6862	-105.577	29.104	-2.6569	-102.545	25.3721	24.6654	-69.0126	25.7733	12.5136	
86	0.716667	-54.6528	-4.00825	10.823	-45.6358	-22.1935	-20.1217	-43.9804	-35.7184	-45.7428	-66.7058	-44.1182	-67.7981	-70.8436	35.0335	-53.279	-60.9548	37.6776	-86.056	-57.5658	13.3658	-107.205	-99.9291	39.3559	-52.019	-101.559	45.2719	-84.4973	-101.741	18.2646	-115.724	-112.982	17.3982	-57.483	-113.165	-3.51383	-83.2008	-103.929	-30.7825	-78.3065	-123.673	-7.46126	-46.9107	-111.878	-32.0755	-54.7396	-100.585	-50.6573	-37.0419	-115.126	21.4794	-1.75445	-112.037	20.6276	24.0706	-79.074	28.3868	11.5165	
